Coordinates
version=1
nRows=32
nColumns=12
inDegrees=yes

Units are S.I. units (second, meters, Newtons, ...)
Angles are in degrees

endheader
time	SC_y	SC_z	SC_x	AC_y	AC_z	AC_x	GH_y	GH_z	GH_yy	EL_x	PS_y
       0.0              -57.78          22.47          36.52          37.97          8.813          3.547         -68.98        -0.5231         -172.1           58.2          151.0
  0.003216              -57.77          22.47          36.51          37.97          8.813          3.546          -69.0        -0.5181         -172.1           58.2          151.0
  0.006432              -57.77          22.48          36.51          37.97          8.813          3.546         -69.01        -0.5128         -172.0          58.21          151.0
  0.009648              -57.76          22.48          36.51          37.98          8.813          3.546         -69.03        -0.5072         -172.0          58.21          151.0
   0.01286              -57.76          22.48          36.51          37.98          8.812          3.546         -69.05        -0.5012         -172.0          58.22          151.0
   0.01608              -57.75          22.48          36.51          37.99          8.812          3.546         -69.06        -0.4948         -172.0          58.23          150.9
    0.0193              -57.74          22.49          36.51          37.99          8.812          3.545         -69.08         -0.488         -172.0          58.23          150.9
   0.02251              -57.73          22.49          36.51           38.0          8.811          3.545          -69.1        -0.4807         -172.0          58.24          150.9
   0.02573              -57.73          22.49           36.5           38.0          8.811          3.545         -69.13        -0.4729         -171.9          58.25          150.9
   0.02894              -57.72           22.5           36.5          38.01           8.81          3.544         -69.15        -0.4645         -171.9          58.26          150.8
   0.03216              -57.71           22.5           36.5          38.01           8.81          3.544         -69.17        -0.4555         -171.9          58.27          150.8
   0.03537               -57.7           22.5           36.5          38.02           8.81          3.544          -69.2        -0.4458         -171.9          58.28          150.8
   0.03859              -57.69          22.51           36.5          38.03          8.809          3.543         -69.23        -0.4354         -171.8          58.29          150.7
   0.04181              -57.68          22.51          36.49          38.04          8.808          3.543         -69.26        -0.4241         -171.8           58.3          150.7
   0.04502              -57.66          22.52          36.49          38.04          8.808          3.543          -69.3         -0.412         -171.8          58.31          150.6
   0.04824              -57.65          22.52          36.49          38.05          8.807          3.542         -69.33        -0.3987         -171.8          58.33          150.6
   0.05145              -57.63          22.53          36.49          38.06          8.807          3.542         -69.38        -0.3844         -171.7          58.34          150.6
   0.05467              -57.62          22.54          36.48          38.07          8.806          3.541         -69.42        -0.3687         -171.7          58.36          150.5
   0.05789               -57.6          22.54          36.48          38.09          8.805           3.54         -69.47        -0.3516         -171.6          58.38          150.4
    0.0611              -57.58          22.55          36.47           38.1          8.804           3.54         -69.52        -0.3329         -171.6           58.4          150.4
   0.06432              -57.56          22.56          36.47          38.11          8.803          3.539         -69.58        -0.3123         -171.5          58.42          150.3
   0.06753              -57.54          22.57          36.47          38.13          8.802          3.538         -69.64        -0.2897         -171.5          58.44          150.2
   0.07075              -57.51          22.58          36.46          38.15          8.801          3.537         -69.71        -0.2647         -171.4          58.47          150.1
   0.07397              -57.48          22.59          36.45          38.17          8.799          3.536         -69.79         -0.237         -171.4           58.5          150.0
   0.07718              -57.45           22.6          36.45          38.19          8.798          3.535         -69.88        -0.2062         -171.3          58.53          149.9
    0.0804              -57.41          22.62          36.44          38.21          8.796          3.534         -69.98        -0.1719         -171.2          58.57          149.8
   0.08361              -57.37          22.63          36.43          38.24          8.794          3.533         -70.08        -0.1334         -171.1          58.61          149.7
   0.08683              -57.33          22.65          36.42          38.27          8.792          3.531         -70.21       -0.09016         -171.0          58.66          149.5
   0.09005              -57.28          22.67          36.41          38.31           8.79          3.529         -70.34       -0.04125         -170.9          58.71          149.3
   0.09326              -57.22           22.7           36.4          38.35          8.787          3.527          -70.5        0.01427         -170.7          58.77          149.1
   0.09648              -57.15          22.72          36.39          38.39          8.784          3.525         -70.68        0.07764         -170.6          58.83          148.9
   0.09969              -57.08          22.75          36.37          38.44           8.78          3.523         -70.88         0.1504         -170.4          58.91          148.7
